<svg width="38" height="30" viewBox="0 0 38 30" fill="none" xmlns="http://www.w3.org/2000/svg">
<g clip-path="url(#clip0_211_237)">
<path fill-rule="evenodd" clip-rule="evenodd" d="M7.78906 0C5.64844 0 4.06563 1.87344 4.1375 3.90313C4.20469 5.85625 4.11719 8.38281 3.48125 10.4438C2.84062 12.5094 1.7625 13.8187 0 13.9875V15.8859C1.7625 16.0531 2.84219 17.3625 3.47969 19.4297C4.11719 21.4906 4.20469 24.0172 4.13594 25.9688C4.06563 28 5.64844 29.8734 7.78906 29.8734H29.7141C31.8547 29.8734 33.4375 28 33.3656 25.9688C33.2984 24.0172 33.3859 21.4906 34.0219 19.4297C34.6609 17.3625 35.7375 16.0547 37.5 15.8859V13.9875C35.7375 13.8187 34.6609 12.5094 34.0219 10.4438C33.3859 8.38125 33.2984 5.85469 33.3656 3.90313C33.4375 1.87188 31.8531 0 29.7141 0H7.78906ZM25.4219 18.3891C25.4219 21.1859 23.3359 22.8812 19.875 22.8812H13.9828C13.8142 22.8812 13.6524 22.8142 13.5331 22.695C13.4139 22.5757 13.3469 22.414 13.3469 22.2453V7.62656C13.3473 7.45817 13.4145 7.29682 13.5337 7.1779C13.6529 7.05897 13.8144 6.99219 13.9828 6.99219H19.8422C22.7281 6.99219 24.6234 8.55469 24.6234 10.9563C24.6234 12.6406 23.3484 14.1484 21.725 14.4141V14.5016C23.9359 14.7438 25.4234 16.275 25.4234 18.3891H25.4219ZM19.2344 9.00625H15.875V13.7531H18.7047C20.8922 13.7531 22.0984 12.8719 22.0984 11.2969C22.0984 9.82187 21.0609 9.00625 19.2344 9.00625ZM15.875 15.6359V20.8656H19.3594C21.6359 20.8656 22.8438 19.9516 22.8438 18.2344C22.8438 16.5156 21.6031 15.6359 19.2125 15.6359H15.875Z" fill="#212121"/>
</g>
<defs>
<clipPath id="clip0_211_237">
<rect width="38" height="30" fill="white"/>
</clipPath>
</defs>
</svg>
