<svg width="27" height="30" viewBox="0 0 27 30" fill="none" xmlns="http://www.w3.org/2000/svg">
<g clip-path="url(#clip0_211_253)">
<path d="M26.3363 7.49858C26.1421 7.14518 25.857 6.84997 25.5105 6.64342L14.4895 0.282217C14.1324 0.096799 13.7358 0 13.3333 0C12.9309 0 12.5343 0.096799 12.1772 0.282217L1.15616 6.64342C0.81848 6.86014 0.537427 7.15423 0.336345 7.50127C0.135263 7.84831 0.0199552 8.23829 0 8.6388V21.3612C0.0108865 21.7632 0.124608 22.1558 0.33033 22.5014C0.524544 22.8548 0.809628 23.15 1.15616 23.3566L12.1772 29.7178C12.5343 29.9032 12.9309 30 13.3333 30C13.7358 30 14.1324 29.9032 14.4895 29.7178L25.5105 23.3566C25.857 23.15 26.1421 22.8548 26.3363 22.5014C26.5421 22.1558 26.6558 21.7632 26.6667 21.3612V8.6388C26.6558 8.23678 26.5421 7.84424 26.3363 7.49858ZM13.3333 23.8817C11.7777 23.8747 10.251 23.4599 8.90607 22.6788C7.56109 21.8976 6.44484 20.7774 5.66888 19.4302C4.89291 18.0829 4.48441 16.5558 4.48419 15.0014C4.48396 13.4469 4.89203 11.9197 5.66761 10.5722C6.44319 9.2247 7.55912 8.1042 8.90388 7.32266C10.2486 6.54112 11.7751 6.1259 13.3308 6.11851C14.8865 6.11112 16.4168 6.51181 17.769 7.28053C19.1211 8.04926 20.2477 9.1591 21.036 10.4991L19.3393 11.5644L18.7988 11.8644L17.2973 12.7796C16.8179 11.8913 16.0536 11.1898 15.1273 10.7877C14.2009 10.3856 13.1662 10.3063 12.1892 10.5625C11.2123 10.8186 10.3499 11.3954 9.74044 12.2001C9.13102 13.0049 8.80996 13.991 8.82883 15C8.82457 15.7808 9.03213 16.5481 9.42943 17.2204C9.83094 17.8818 10.3963 18.4286 11.0709 18.8081C11.7455 19.1876 12.5066 19.387 13.2808 19.387C14.055 19.387 14.8161 19.1876 15.4907 18.8081C16.1653 18.4286 16.7306 17.8818 17.1321 17.2204L21.036 19.5009C20.2456 20.8385 19.119 21.9465 17.7678 22.715C16.4167 23.4834 14.888 23.8856 13.3333 23.8817ZM22.2222 15.4951H21.2312V16.5003H20.2553V15.5101H19.3393V14.5199H20.3303V13.4997H21.3063V14.4899H22.2973L22.2222 15.4951ZM25.9309 15.4951H24.9399V16.5003H23.9489V15.5101H22.973V14.5199H23.9489V13.4997H24.9399V14.4899H25.9309V15.4951Z" fill="#212121"/>
</g>
<defs>
<clipPath id="clip0_211_253">
<rect width="26.6667" height="30" fill="white"/>
</clipPath>
</defs>
</svg>
