<svg width="21" height="30" viewBox="0 0 21 30" fill="none" xmlns="http://www.w3.org/2000/svg">
<path d="M4.94894 0.504181H9.87803V9.89983H4.949C-1.55131 9.65765 -1.61696 0.758537 4.94894 0.504181ZM4.94894 19.6973H9.87803V10.3017H4.949C-1.6169 10.5561 -1.55125 19.4552 4.949 19.6973H4.94894ZM15.2289 0.504181H10.2997V9.89983H15.2289C21.8166 9.56383 21.7345 0.695967 15.2289 0.504181ZM9.87803 24.7971V20.0992H4.949C0.926665 20.0992 -1.6169 24.5938 1.18053 27.8221C3.84767 31.0218 9.87809 29.4266 9.87809 24.7971H9.87803ZM20.1681 14.9995C20.1681 11.3892 16.039 9.12051 12.7537 10.9257C9.46838 12.7309 9.46832 17.2682 12.7537 19.0734C16.0391 20.8786 20.1681 18.6099 20.1681 14.9995Z" fill="#212121"/>
</svg>
