<svg width="30" height="30" viewBox="0 0 30 30" fill="none" xmlns="http://www.w3.org/2000/svg">
<g clip-path="url(#clip0_254_17)">
<path fill-rule="evenodd" clip-rule="evenodd" d="M10.081 6.32859H13.206L17.6998 21.3837H14.9854L13.8676 17.0953H9.48797L8.34738 21.3838H5.95225L10.0811 7.03576V6.32859H10.081ZM13.2517 14.8827L11.7005 8.51836L10.1038 14.8826H13.2517V14.8827ZM22.3532 10.1952H19.8896V21.3838H22.3532V10.1953V10.1952ZM21.0896 5.8483C20.2915 5.8483 19.6446 6.48785 19.6446 7.27682C19.6446 8.06578 20.2915 8.70539 21.0896 8.70539C21.8878 8.70539 22.5348 8.06584 22.5348 7.27688C22.5348 6.48791 21.8878 5.8483 21.0896 5.8483ZM30 30H0V0H30V30Z" fill="#212121"/>
</g>
<defs>
<clipPath id="clip0_254_17">
<rect width="30" height="30" fill="white"/>
</clipPath>
</defs>
</svg>
