<svg width="40" height="29" viewBox="0 0 40 29" fill="none" xmlns="http://www.w3.org/2000/svg">
<g clip-path="url(#clip0_211_235)">
<path d="M24.5176 20.4477C25.029 21.4843 25.8224 22.3556 26.8068 22.9615C27.7912 23.5674 28.9266 23.8833 30.0824 23.8729C32.4198 23.8729 33.9132 22.7043 33.9132 21.0905C33.9132 19.157 32.3786 18.4713 29.8071 17.3455L28.3962 16.7405C24.3264 15.0064 21.6214 12.8339 21.6214 8.24161C21.6214 4.01029 24.8456 0.791062 29.883 0.791062C31.5179 0.672431 33.1515 1.03838 34.5796 1.84315C36.0076 2.64792 37.1668 3.85581 37.9121 5.31579L33.5192 8.13612C33.2316 7.41265 32.7306 6.79384 32.0829 6.36191C31.4351 5.92999 30.6713 5.7054 29.8929 5.71798C29.5536 5.68384 29.2109 5.72079 28.8866 5.82646C28.5624 5.93213 28.2637 6.10421 28.0097 6.33172C27.7556 6.55924 27.5518 6.83719 27.4112 7.14787C27.2705 7.45854 27.1962 7.79511 27.1929 8.13612C27.1929 9.82897 28.2412 10.513 30.6544 11.5614L32.0654 12.1647C36.8588 14.2202 39.5637 16.3152 39.5637 21.0262C39.5637 26.1048 35.5747 28.8872 30.2159 28.8872C28.1286 29.02 26.0474 28.5459 24.2235 27.5222C22.3995 26.4985 20.9108 24.9689 19.9368 23.118L24.5176 20.4477ZM4.59231 20.9422C5.47912 22.5147 6.28516 23.8433 8.21868 23.8433C10.0714 23.8433 11.2418 23.118 11.2418 20.2993V1.12073H16.8824V20.3784C16.8824 26.2185 13.4571 28.8773 8.45934 28.8773C6.69394 28.9729 4.94097 28.5318 3.43104 27.6121C1.92111 26.6924 0.724978 25.3371 0 23.7246L4.59231 20.9422Z" fill="#212121"/>
</g>
<defs>
<clipPath id="clip0_211_235">
<rect width="40" height="29" fill="white"/>
</clipPath>
</defs>
</svg>
