<svg width="30" height="30" viewBox="0 0 30 30" fill="none" xmlns="http://www.w3.org/2000/svg">
<g clip-path="url(#clip0_254_18)">
<path fill-rule="evenodd" clip-rule="evenodd" d="M30 30H0V0H30V30ZM23.8131 12.7157V10.3889C23.4299 10.2183 21.2355 9.59057 19.5019 10.2521C17.0046 11.2049 17.0943 14.0754 18.042 15.202C19.2698 16.6617 22.3241 17.2059 21.8243 18.6387C21.5655 19.3806 20.3572 19.5097 19.292 19.2606C18.3 19.0287 17.4375 18.4412 17.4375 18.4412V20.9047C17.4375 20.9047 18.29 21.38 19.3364 21.4931C20.6778 21.638 22.3592 21.3644 23.2015 20.6157C24.701 19.2829 24.9312 16.3303 22.0897 14.9593C19.7252 13.8185 19.7641 13.4929 19.7807 12.9077C19.8029 12.1239 21.4485 11.6415 23.8131 12.7157ZM11.0619 6.18604C13.0293 6.25447 15.9206 7.16121 15.9206 11.0276C15.9206 14.8941 12.3831 16.1628 9.15521 15.8863V21.3609H6.75059V6.2373C6.75059 6.2373 9.09439 6.1176 11.0619 6.18604H11.0619ZM11.6863 13.4912C12.7232 13.1129 13.3972 12.2995 13.3972 11.0361C13.3972 9.69662 12.7113 8.78953 11.6624 8.5333C10.5265 8.25574 9.15521 8.41934 9.15521 8.41934V13.6954C9.15521 13.6954 11.0534 13.7222 11.6863 13.4912Z" fill="#212121"/>
</g>
<defs>
<clipPath id="clip0_254_18">
<rect width="30" height="30" fill="white"/>
</clipPath>
</defs>
</svg>
