<svg width="34" height="30" viewBox="0 0 34 30" fill="none" xmlns="http://www.w3.org/2000/svg">
<g clip-path="url(#clip0_211_263)">
<path d="M33.3333 15.1236C33.3333 12.9153 30.5681 10.8222 26.3278 9.52499C27.3069 5.20416 26.8722 1.76527 24.9556 0.663882C24.4911 0.403772 23.9655 0.272843 23.4333 0.284715V1.7986C23.7458 1.7986 23.9972 1.8611 24.2083 1.97638C25.1319 2.50694 25.5333 4.5236 25.2208 7.11944C25.1458 7.75833 25.0236 8.43055 24.8736 9.11666C23.4537 8.77449 22.0125 8.52718 20.5597 8.37638C19.6942 7.18234 18.75 6.04741 17.7333 4.97916C19.9486 2.92083 22.0278 1.79305 23.4417 1.79305V0.277771C21.5722 0.277771 19.1264 1.60972 16.6528 3.91944C14.1806 1.62499 11.7333 0.305549 9.86528 0.305549V1.81944C11.2722 1.81944 13.3583 2.94166 15.5736 4.9861C14.6222 5.9861 13.6708 7.11944 12.7667 8.37638C11.3109 8.52551 9.86716 8.77518 8.44583 9.1236C8.29562 8.47331 8.17742 7.81604 8.09167 7.15416C7.77222 4.55694 8.16667 2.54027 9.08472 2.00416C9.2875 1.88194 9.55278 1.82638 9.86528 1.82638V0.312493C9.29583 0.312493 8.77778 0.434715 8.33056 0.69166C6.42083 1.79305 5.99306 5.2236 6.97778 9.53194C2.75139 10.8375 0 12.9222 0 15.1236C0 17.3319 2.76528 19.425 7.00556 20.7208C6.02639 25.043 6.46111 28.4819 8.37778 29.5819C8.81944 29.8403 9.33611 29.9625 9.90555 29.9625C11.775 29.9625 14.2208 28.6305 16.6944 26.3208C19.1667 28.6167 21.6125 29.9347 23.4819 29.9347C24.0182 29.946 24.5478 29.8147 25.0167 29.5542C26.9264 28.4542 27.3542 25.0236 26.3694 20.7153C30.5819 19.418 33.3333 17.325 33.3333 15.1236ZM24.4861 10.5917C24.2222 11.4998 23.9163 12.3952 23.5694 13.275C23.0016 12.1705 22.3781 11.0955 21.7014 10.0542C22.6667 10.1972 23.5972 10.3736 24.4875 10.5917H24.4861ZM21.375 17.8278C20.8663 18.7159 20.32 19.582 19.7375 20.4236C17.699 20.6033 15.6487 20.6056 13.6097 20.4305C12.4402 18.76 11.4174 16.9913 10.5528 15.1444C11.4161 13.2932 12.4345 11.5183 13.5972 9.83888C15.6353 9.65884 17.6851 9.65605 19.7236 9.83055C20.2875 10.6389 20.8389 11.5028 21.3681 12.4139C21.8847 13.3028 22.3542 14.2055 22.7819 15.1167C22.3494 16.0388 21.8801 16.9433 21.375 17.8278ZM23.5694 16.9444C23.9361 17.8542 24.25 18.7653 24.5069 19.6486C23.6181 19.8667 22.6792 20.05 21.7083 20.1917C22.3823 19.1409 23.0034 18.0571 23.5694 16.9444ZM16.6806 24.1944C16.0486 23.5417 15.4167 22.8153 14.7917 22.0194C15.4028 22.0472 16.0278 22.068 16.6597 22.068C17.2986 22.068 17.9306 22.0542 18.5486 22.0194C17.9375 22.8153 17.3056 23.5417 16.6806 24.1944ZM11.625 20.1917C10.6885 20.056 9.75884 19.8771 8.83889 19.6555C9.09028 18.7792 9.40278 17.875 9.75556 16.9722C10.0347 17.5139 10.3278 18.0583 10.6472 18.6028C10.9667 19.1458 11.2917 19.6764 11.625 20.1917ZM16.6458 6.05277C17.2778 6.70555 17.9097 7.43194 18.5347 8.22777C17.9236 8.19999 17.2986 8.17916 16.6667 8.17916C16.0278 8.17916 15.3958 8.19305 14.7778 8.22777C15.3889 7.43194 16.0208 6.70555 16.6458 6.05277ZM11.6181 10.0555C10.9443 11.1041 10.3231 12.1855 9.75694 13.2958C9.4003 12.4104 9.08742 11.5079 8.81944 10.5917C9.70833 10.3805 10.6472 10.1972 11.6181 10.0555ZM5.46944 18.5611C3.06389 17.5361 1.50833 16.1903 1.50833 15.1236C1.50833 14.0569 3.06389 12.7042 5.46944 11.6861C6.05278 11.4347 6.69167 11.2097 7.35139 11C7.73889 12.3305 8.24861 13.7167 8.87917 15.1375C8.28384 16.4739 7.78036 17.8493 7.37222 19.2542C6.72702 19.0544 6.09199 18.8231 5.46944 18.5611ZM9.125 28.2694C8.20139 27.7417 7.8 25.7222 8.1125 23.1278C8.1875 22.4889 8.30972 21.8153 8.45972 21.1292C9.79028 21.4555 11.2444 21.7069 12.7736 21.8708C13.6391 23.0648 14.5834 24.1998 15.6 25.268C13.3847 27.3264 11.3056 28.4542 9.89167 28.4542C9.62492 28.4571 9.36157 28.3941 9.125 28.2708V28.2694ZM25.2417 23.093C25.5611 25.6889 25.1667 27.7069 24.2486 28.243C24.0458 28.3653 23.7806 28.4194 23.4681 28.4194C22.0611 28.4194 19.975 27.2986 17.7597 25.2528C18.7721 24.189 19.71 23.0567 20.5667 21.8639C22.0225 21.7148 23.4662 21.4651 24.8875 21.1167C25.0444 21.8028 25.1653 22.4611 25.2417 23.093ZM27.8569 18.5611C27.2736 18.8125 26.6347 19.0375 25.975 19.2472C25.5597 17.8352 25.0493 16.4528 24.4472 15.1097C25.0722 13.6972 25.5736 12.318 25.9542 10.993C26.6014 11.1935 27.2387 11.4248 27.8639 11.6861C30.2694 12.7111 31.825 14.0569 31.825 15.1236C31.8181 16.1903 30.2625 17.543 27.8569 18.5611Z" fill="#212121"/>
<path d="M16.6598 18.2291C17.4834 18.2291 18.2733 17.902 18.8557 17.3196C19.4381 16.7371 19.7653 15.9472 19.7653 15.1236C19.7653 14.2999 19.4381 13.51 18.8557 12.9276C18.2733 12.3452 17.4834 12.018 16.6598 12.018C15.8361 12.018 15.0462 12.3452 14.4638 12.9276C13.8814 13.51 13.5542 14.2999 13.5542 15.1236C13.5542 15.9472 13.8814 16.7371 14.4638 17.3196C15.0462 17.902 15.8361 18.2291 16.6598 18.2291Z" fill="#212121"/>
</g>
<defs>
<clipPath id="clip0_211_263">
<rect width="33.3333" height="30" fill="white"/>
</clipPath>
</defs>
</svg>
