<svg width="29" height="30" viewBox="0 0 29 30" fill="none" xmlns="http://www.w3.org/2000/svg">
<g clip-path="url(#clip0_276_34)">
<path d="M25.2587 0H3.15732C1.4136 0 0 1.4136 0 3.15732V26.8373C0 28.5811 1.4136 29.9947 3.15732 29.9947H25.2587C27.0024 29.9947 28.416 28.5811 28.416 26.8373V3.15732C28.416 1.4136 27.0024 0 25.2587 0ZM17.3534 17.712C18.1777 18.6898 18.5784 19.7096 18.5784 20.8298H17.5933C17.5933 18.8466 15.9546 17.5865 14.2196 16.2523L14.0358 16.1108L13.9328 16.1196C13.7977 16.1309 13.6568 16.1416 13.521 16.1519C11.373 16.3145 9.96456 16.5527 9.96456 18.3119C9.96456 19.0835 10.6378 19.4371 11.7362 19.9502C12.4344 20.2763 13.1562 20.6135 13.6906 21.1724C13.9966 21.4925 14.2112 21.8604 14.3286 22.266C14.4331 22.6273 14.4631 23.0293 14.4187 23.4642C15.3929 23.7578 16.1024 24.6618 16.1024 25.7322C16.1024 27.0402 15.0422 28.1002 13.7344 28.1002C12.4265 28.1002 11.3664 27.0401 11.3664 25.7323C11.3664 24.5252 12.2695 23.5292 13.4369 23.3828C13.5277 22.5428 13.2241 22.1108 12.9785 21.8537C12.5719 21.4284 11.9351 21.1309 11.3194 20.8433C10.7794 20.5913 10.2198 20.3297 9.78864 19.9697C9.53316 19.7564 9.34356 19.5284 9.20892 19.2726C9.05664 18.9832 8.97948 18.6606 8.97948 18.3126C8.97948 17.071 9.52068 16.1952 10.5881 15.7098C11.2826 15.3938 12.1171 15.2816 12.91 15.2124C12.4254 14.8022 11.9665 14.3693 11.5732 13.8954C10.7057 12.8504 10.284 11.7498 10.284 10.5306H11.2692C11.2692 12.5419 12.6972 13.8215 14.331 15.0937C15.4392 14.9807 16.1903 14.8216 16.731 14.5883C17.5566 14.232 17.6624 13.776 17.6624 13.4186C17.6624 13.0121 17.5258 12.7069 17.2193 12.4292C16.9046 12.144 16.4501 11.9196 15.9689 11.682C15.3089 11.3563 14.627 11.0195 14.1125 10.45C13.8251 10.1345 13.6135 9.75761 13.4938 9.348C13.3913 8.99688 13.3508 8.60556 13.3726 8.18136C12.2365 8.00712 11.3664 7.02564 11.3664 5.84136C11.3664 4.53336 12.4266 3.47328 13.7344 3.47328C15.0421 3.47328 16.1024 4.53348 16.1024 5.84136C16.1024 6.93144 15.3658 7.84932 14.3632 8.12472C14.2333 9.72672 15.2424 10.2247 16.4047 10.7989C16.9254 11.0561 17.4637 11.3219 17.8807 11.6995C18.1254 11.9213 18.3066 12.1596 18.4343 12.428C18.5758 12.7253 18.6474 13.0586 18.6474 13.4189C18.6474 13.9128 18.5011 14.3468 18.2125 14.709C17.9567 15.03 17.5998 15.2864 17.1214 15.493C16.6782 15.6842 16.1336 15.8311 15.4312 15.9448C16.1291 16.4929 16.8104 17.0678 17.3534 17.712Z" fill="#212121"/>
</g>
<defs>
<clipPath id="clip0_276_34">
<rect width="28.416" height="30" fill="white"/>
</clipPath>
</defs>
</svg>
