<svg width="32" height="30" viewBox="0 0 32 30" fill="none" xmlns="http://www.w3.org/2000/svg">
<g clip-path="url(#clip0_277_38)">
<path d="M21.8074 20.8684C22.9688 20.7481 23.85 19.7469 23.8099 18.5453C23.7699 17.3438 22.7686 16.3825 21.5671 16.3825H21.487C20.2453 16.4226 19.2842 17.4639 19.3243 18.7055C19.3643 19.3063 19.6046 19.8269 19.965 20.1874C18.6033 22.8709 16.5207 24.8335 13.3968 26.4756C11.2741 27.5971 9.07133 27.9976 6.8686 27.7173C5.06628 27.4769 3.66451 26.676 2.78326 25.3541C1.50172 23.3916 1.38161 21.2688 2.463 19.1461C3.22401 17.6241 4.42539 16.5026 5.18639 15.9419C5.0262 15.4212 4.78585 14.5401 4.66574 13.8993C-1.14163 18.1048 -0.54082 23.7921 1.22142 26.4756C2.54304 28.4783 5.22647 29.7199 8.19021 29.7199C8.99118 29.7199 9.79214 29.6397 10.5932 29.4396C15.7197 28.4382 19.6047 25.3942 21.8074 20.8684V20.8684ZM28.8564 15.9019C25.8125 12.3372 21.3268 10.3747 16.2003 10.3747H15.5596C15.1991 9.65379 14.4381 9.17309 13.597 9.17309H13.5169C12.2754 9.21317 11.3143 10.2545 11.3542 11.4962C11.3943 12.6977 12.3955 13.659 13.597 13.659H13.6771C14.5582 13.6189 15.3192 13.0582 15.6396 12.2971H16.3605C19.4044 12.2971 22.288 13.1783 24.8914 14.9006C26.8939 16.2223 28.3357 17.9446 29.1367 20.0272C29.8175 21.7094 29.7774 23.3515 29.0565 24.7534C27.9352 26.8761 26.0528 28.0377 23.5697 28.0377C21.9676 28.0377 20.4457 27.557 19.6446 27.1965C19.2041 27.5971 18.4031 28.2378 17.8423 28.6385C19.5646 29.4394 21.3268 29.8801 23.0089 29.8801C26.8538 29.8801 29.6974 27.7572 30.7788 25.6345C31.9402 23.3114 31.8601 19.3063 28.8564 15.9019V15.9019ZM8.5106 21.5491C8.55068 22.7507 9.55191 23.7119 10.7534 23.7119H10.8336C12.0752 23.6719 13.0363 22.6305 12.9962 21.3889C12.9563 20.1873 11.9549 19.2261 10.7534 19.2261H10.6734C10.5932 19.2261 10.473 19.2261 10.3931 19.2661C8.75095 16.5426 8.0701 13.5788 8.31045 10.3746C8.47052 7.97146 9.2716 5.88872 10.6734 4.16644C11.8348 2.6845 14.0776 1.96358 15.5996 1.92362C19.8449 1.84346 21.6471 7.1303 21.7673 9.25313C22.288 9.37324 23.1691 9.65367 23.7699 9.85394C23.2892 3.3656 19.2842 0.00119019 15.4394 0.00119019C11.8348 0.00119019 8.5106 2.60459 7.18886 6.44958C5.34659 11.5762 6.54809 16.5026 8.7909 20.3877C8.59076 20.668 8.47052 21.1086 8.5106 21.5492V21.5491Z" fill="#212121"/>
</g>
<defs>
<clipPath id="clip0_277_38">
<rect width="31.4729" height="30" fill="white"/>
</clipPath>
</defs>
</svg>
