<svg width="26" height="30" viewBox="0 0 26 30" fill="none" xmlns="http://www.w3.org/2000/svg">
<g clip-path="url(#clip0_211_233)">
<path d="M12.7852 17.8962C12.2698 18.133 11.7052 18.4415 10.5748 19.0619C10.1463 19.303 9.69841 19.544 9.28162 19.7712C9.25269 19.7423 9.22269 19.7058 9.19376 19.6758C6.95769 17.2865 2.82198 15.599 2.99769 12.3901C3.06305 11.2212 3.46484 8.15261 10.9402 4.42618C17.0923 1.39403 21.9877 2.23404 22.833 4.09725C24.048 6.75332 20.2091 11.6958 13.8556 12.4126C13.1524 12.5552 12.4261 12.538 11.7305 12.3622C11.0348 12.1864 10.3876 11.8565 9.83662 11.3969C9.50019 11.0315 9.44984 11.0101 9.32555 11.083C9.12091 11.1901 9.25269 11.5212 9.32555 11.7108C9.56791 12.1496 9.89578 12.5354 10.2898 12.8453C10.6838 13.1552 11.1359 13.3829 11.6195 13.5151C14.1198 14.0555 16.7266 13.7973 19.0723 12.7769C22.923 11.2865 25.9295 7.14332 25.0488 3.66975C24.1648 0.147963 18.3191 -1.01347 12.7884 0.951535C9.32477 2.11874 6.12469 3.95615 3.37055 6.35904C0.323407 9.20903 -0.158735 11.6862 0.0384078 12.7233C0.747693 16.4058 5.82412 18.8026 7.85984 20.578C7.75269 20.6369 7.66269 20.6851 7.58234 20.7312C6.56662 21.2358 2.69448 23.2597 1.72912 25.4005C0.633051 27.8262 1.90484 29.5651 2.74484 29.7987C4.01072 30.1019 5.33969 30.0022 6.54617 29.5136C7.75266 29.0249 8.77641 28.1716 9.47448 27.073C10.0673 26.1619 10.4313 25.1212 10.5356 24.0392C10.6398 22.9573 10.4813 21.8662 10.0734 20.8587C10.3141 20.6667 10.5707 20.4957 10.8406 20.3476C11.3591 20.0412 11.8531 19.739 12.2913 19.5055C13.7917 18.8027 15.4291 18.4408 17.0859 18.4458C20.5638 18.8551 21.2505 21.0247 21.1188 21.9387C21.0571 22.2629 20.9267 22.5702 20.7364 22.8399C20.546 23.1095 20.3001 23.3352 20.0152 23.5019C19.7741 23.6551 19.6938 23.7065 19.7152 23.8158C19.7441 23.9765 19.8609 23.969 20.0655 23.9401C20.5881 23.775 21.0484 23.4556 21.3861 23.024C21.7238 22.5924 21.9231 22.0688 21.9577 21.5219C22.0648 19.379 20.0216 17.0283 16.4045 17.0497C15.3214 17.0516 14.2491 17.2653 13.2481 17.6787C13.0873 17.7451 12.9313 17.8165 12.7798 17.893L12.7852 17.8962ZM7.61555 26.2951C6.46055 27.5519 4.85341 28.0265 4.15912 27.6248C3.40912 27.1962 3.70591 25.3372 5.12341 24.0076C5.96294 23.2512 6.87034 22.5737 7.83412 21.9837C8.00234 21.8765 8.25091 21.7351 8.54984 21.5551L8.63019 21.5112L8.80591 21.404C9.05872 22.2516 9.08172 23.1512 8.87256 24.0106C8.6634 24.8701 8.22959 25.6585 7.61555 26.2951Z" fill="#212121"/>
</g>
<defs>
<clipPath id="clip0_211_233">
<rect width="26" height="30" fill="white"/>
</clipPath>
</defs>
</svg>
