<svg width="42" height="25" viewBox="0 0 42 25" fill="none" xmlns="http://www.w3.org/2000/svg">
<path d="M34.65 7.32268C33.0751 6.78563 31.685 5.81999 30.639 4.53649C29.4862 3.10646 28.0183 1.95644 26.3477 1.1744C24.677 0.392374 22.8478 -0.000945685 21 0.0245343C18.5144 -0.149757 16.0536 0.609311 14.1078 2.15058C12.162 3.69184 10.8739 5.90221 10.5 8.34151C11.2364 7.1215 12.3448 6.16427 13.6655 5.60755C14.9863 5.05084 16.4514 4.92335 17.85 5.24344C19.4223 5.79612 20.8101 6.76738 21.861 8.05042C23.0201 9.46903 24.4908 10.6072 26.1611 11.3782C27.8314 12.1493 29.6574 12.5329 31.5 12.5C33.9856 12.6743 36.4464 11.9152 38.3922 10.374C40.338 8.83269 41.6261 6.62232 42 4.18302C41.277 5.41762 40.1721 6.38932 38.8487 6.95466C37.5252 7.52 36.0532 7.64902 34.65 7.32268ZM7.35 17.6773C8.92489 18.2144 10.315 19.18 11.361 20.4635C12.5138 21.8935 13.9817 23.0436 15.6523 23.8256C17.323 24.6076 19.1522 25.0009 21 24.9755C23.4856 25.1498 25.9464 24.3907 27.8922 22.8494C29.838 21.3082 31.1261 19.0978 31.5 16.6585C30.7636 17.8785 29.6552 18.8357 28.3345 19.3924C27.0137 19.9492 25.5486 20.0766 24.15 19.7566C22.5777 19.2039 21.1899 18.2326 20.139 16.9496C18.9768 15.5345 17.5055 14.3988 15.8359 13.6281C14.1663 12.8574 12.3419 12.4717 10.5 12.5C8.01437 12.3257 5.55362 13.0848 3.60781 14.626C1.662 16.1673 0.373888 18.3777 0 20.817C0.723044 19.5824 1.82786 18.6107 3.15133 18.0453C4.4748 17.48 5.9468 17.351 7.35 17.6773Z" fill="#212121"/>
</svg>
